<svg width="47" height="32" viewBox="0 0 47 32" fill="none" xmlns="http://www.w3.org/2000/svg">
<g filter="url(#filter0_d)">
<path d="M3 9H9V20L3 27V9Z" fill="#C90A0A"/>
</g>
<g filter="url(#filter1_d)">
<path d="M4 1H42C43.1046 1 44 1.89543 44 3V16.7778C44 17.8823 43.1046 18.7778 42 18.7778H4V1Z" fill="#FF1818"/>
</g>
<path d="M14.291 14.2099C14.2102 14.2099 14.1415 14.1811 14.0849 14.1235C14.0283 14.0659 14 13.9959 14 13.9136V5.87656C14 5.78602 14.0243 5.71195 14.0728 5.65433C14.1293 5.59672 14.2021 5.56791 14.291 5.56791H15.4066C15.4956 5.56791 15.5683 5.59672 15.6249 5.65433C15.6815 5.71195 15.7098 5.78602 15.7098 5.87656V9.0494H19.2506V5.87656C19.2506 5.78602 19.2789 5.71195 19.3355 5.65433C19.3921 5.59672 19.4608 5.56791 19.5416 5.56791H20.6694C20.7583 5.56791 20.827 5.59672 20.8755 5.65433C20.9321 5.71195 20.9604 5.78602 20.9604 5.87656V13.9136C20.9604 13.9959 20.9321 14.0659 20.8755 14.1235C20.827 14.1811 20.7583 14.2099 20.6694 14.2099H19.5416C19.4608 14.2099 19.3921 14.1811 19.3355 14.1235C19.2789 14.0659 19.2506 13.9959 19.2506 13.9136V10.6173H15.7098V13.9136C15.7098 13.9959 15.6815 14.0659 15.6249 14.1235C15.5683 14.1811 15.4956 14.2099 15.4066 14.2099H14.291Z" fill="white"/>
<path d="M25.5133 14.3333C24.5594 14.3333 23.8238 14.0864 23.3064 13.5926C22.789 13.0988 22.5101 12.4157 22.4697 11.5432L22.4576 11L22.4697 10.4568C22.5101 9.59261 22.7931 8.91359 23.3185 8.41977C23.844 7.91771 24.5756 7.66668 25.5133 7.66668C26.443 7.66668 27.1706 7.91771 27.696 8.41977C28.2215 8.91359 28.5044 9.59261 28.5449 10.4568C28.553 10.5556 28.557 10.7366 28.557 11C28.557 11.2634 28.553 11.4445 28.5449 11.5432C28.5044 12.4157 28.2255 13.0988 27.7082 13.5926C27.1908 14.0864 26.4592 14.3333 25.5133 14.3333ZM25.5133 13.0864C25.9418 13.0864 26.2692 12.9506 26.4956 12.679C26.73 12.4074 26.8553 12.0082 26.8715 11.4815C26.8796 11.3992 26.8836 11.2387 26.8836 11C26.8836 10.7613 26.8796 10.6008 26.8715 10.5185C26.8553 9.99178 26.73 9.59261 26.4956 9.321C26.2611 9.04117 25.9337 8.90125 25.5133 8.90125C25.0849 8.90125 24.7534 9.04117 24.519 9.321C24.2846 9.59261 24.1593 9.99178 24.1431 10.5185L24.131 11L24.1431 11.4815C24.1593 12.0082 24.2846 12.4074 24.519 12.679C24.7534 12.9506 25.0849 13.0864 25.5133 13.0864Z" fill="white"/>
<path d="M32.7146 14.2099C31.979 14.2099 31.4252 14.0165 31.0534 13.6296C30.6815 13.2346 30.4956 12.6585 30.4956 11.9012V9.11113H29.5376C29.4568 9.11113 29.388 9.08232 29.3315 9.02471C29.2749 8.96709 29.2466 8.89713 29.2466 8.81483V8.08643C29.2466 8.00413 29.2749 7.93417 29.3315 7.87656C29.388 7.81894 29.4568 7.79014 29.5376 7.79014H30.4956V5.74075C30.4956 5.65022 30.5239 5.58026 30.5804 5.53088C30.637 5.47326 30.7057 5.44446 30.7866 5.44446H31.793C31.882 5.44446 31.9507 5.47326 31.9992 5.53088C32.0558 5.58026 32.0841 5.65022 32.0841 5.74075V7.79014H33.5998C33.6807 7.79014 33.7494 7.81894 33.806 7.87656C33.8626 7.93417 33.8909 8.00413 33.8909 8.08643V8.81483C33.8909 8.89713 33.8626 8.96709 33.806 9.02471C33.7494 9.08232 33.6807 9.11113 33.5998 9.11113H32.0841V11.7654C32.0841 12.1194 32.1447 12.3868 32.266 12.5679C32.3872 12.749 32.5853 12.8395 32.8601 12.8395H33.709C33.7979 12.8395 33.8666 12.8683 33.9151 12.9259C33.9717 12.9753 34 13.0453 34 13.1358V13.9136C34 13.9959 33.9717 14.0659 33.9151 14.1235C33.8666 14.1811 33.7979 14.2099 33.709 14.2099H32.7146Z" fill="white"/>
<defs>
<filter id="filter0_d" x="0" y="8" width="12" height="24" filterUnits="userSpaceOnUse" color-interpolation-filters="sRGB">
<feFlood flood-opacity="0" result="BackgroundImageFix"/>
<feColorMatrix in="SourceAlpha" type="matrix" values="0 0 0 0 0 0 0 0 0 0 0 0 0 0 0 0 0 0 127 0"/>
<feOffset dy="2"/>
<feGaussianBlur stdDeviation="1.5"/>
<feColorMatrix type="matrix" values="0 0 0 0 0 0 0 0 0 0 0 0 0 0 0 0 0 0 0.53 0"/>
<feBlend mode="normal" in2="BackgroundImageFix" result="effect1_dropShadow"/>
<feBlend mode="normal" in="SourceGraphic" in2="effect1_dropShadow" result="shape"/>
</filter>
<filter id="filter1_d" x="1" y="0" width="46" height="23.7778" filterUnits="userSpaceOnUse" color-interpolation-filters="sRGB">
<feFlood flood-opacity="0" result="BackgroundImageFix"/>
<feColorMatrix in="SourceAlpha" type="matrix" values="0 0 0 0 0 0 0 0 0 0 0 0 0 0 0 0 0 0 127 0"/>
<feOffset dy="2"/>
<feGaussianBlur stdDeviation="1.5"/>
<feColorMatrix type="matrix" values="0 0 0 0 0 0 0 0 0 0 0 0 0 0 0 0 0 0 0.53 0"/>
<feBlend mode="normal" in2="BackgroundImageFix" result="effect1_dropShadow"/>
<feBlend mode="normal" in="SourceGraphic" in2="effect1_dropShadow" result="shape"/>
</filter>
</defs>
</svg>
