<svg width="47" height="32" viewBox="0 0 47 32" fill="none" xmlns="http://www.w3.org/2000/svg">
<g filter="url(#filter0_d)">
<path d="M3 9H9V20L3 27V9Z" fill="#597000"/>
</g>
<g filter="url(#filter1_d)">
<path d="M4 1H42C43.1046 1 44 1.89543 44 3V16.7778C44 17.8823 43.1046 18.7778 42 18.7778H4V1Z" fill="#789600"/>
</g>
<path d="M12.0738 14.1925C11.9916 14.1925 11.9217 14.1596 11.8641 14.0939C11.8066 14.0281 11.7778 13.9483 11.7778 13.8544V4.68543C11.7778 4.58214 11.8025 4.49763 11.8518 4.43191C11.9094 4.36618 11.9833 4.33331 12.0738 4.33331H13.0355C13.1917 4.33331 13.3109 4.41313 13.3931 4.57275L16.9195 10.8263V4.68543C16.9195 4.58214 16.9441 4.49763 16.9934 4.43191C17.051 4.36618 17.125 4.33331 17.2154 4.33331H18.2758C18.3662 4.33331 18.4402 4.36618 18.4977 4.43191C18.5553 4.49763 18.584 4.58214 18.584 4.68543V13.8404C18.584 13.9436 18.5553 14.0281 18.4977 14.0939C18.4402 14.1596 18.3703 14.1925 18.2881 14.1925H17.314C17.1496 14.1925 17.0263 14.1127 16.9441 13.953L13.4301 7.84036V13.8544C13.4301 13.9483 13.4013 14.0281 13.3438 14.0939C13.2944 14.1596 13.2246 14.1925 13.1341 14.1925H12.0738Z" fill="white"/>
<path d="M23.1219 14.3333C22.2012 14.3333 21.4696 14.0328 20.9271 13.4319C20.3928 12.831 20.1092 11.9765 20.0763 10.8685L20.064 10.5164C20.064 9.3427 20.3312 8.41782 20.8655 7.74176C21.408 7.06571 22.156 6.72768 23.1095 6.72768C24.0877 6.72768 24.8399 7.06571 25.3659 7.74176C25.9002 8.41782 26.1674 9.31923 26.1674 10.446V10.7418C26.1674 10.8357 26.1386 10.9155 26.0811 10.9812C26.0235 11.0469 25.9496 11.0798 25.8591 11.0798H21.7656V11.1925C21.782 11.7183 21.9053 12.1549 22.1355 12.5023C22.3739 12.8404 22.6985 13.0094 23.1095 13.0094C23.5781 13.0094 23.9603 12.7934 24.2562 12.3615C24.3302 12.2582 24.3878 12.1972 24.4289 12.1784C24.47 12.1502 24.5398 12.1361 24.6385 12.1361H25.7235C25.7975 12.1361 25.8591 12.1596 25.9085 12.2066C25.966 12.2535 25.9948 12.3192 25.9948 12.4037C25.9948 12.6291 25.8756 12.8967 25.6372 13.2066C25.407 13.507 25.0741 13.7699 24.6385 13.9953C24.2028 14.2206 23.6973 14.3333 23.1219 14.3333ZM24.4659 9.88261V9.85444C24.4659 9.30045 24.3425 8.85913 24.0959 8.5305C23.8576 8.19247 23.5288 8.02345 23.1095 8.02345C22.6903 8.02345 22.3615 8.19247 22.1231 8.5305C21.8848 8.85913 21.7656 9.30045 21.7656 9.85444V9.88261H24.4659Z" fill="white"/>
<path d="M29.0462 14.1925C28.8407 14.1925 28.705 14.0751 28.6393 13.8404L26.8761 7.30514C26.8679 7.27698 26.8638 7.23472 26.8638 7.17838C26.8638 7.09388 26.8884 7.02345 26.9377 6.96712C26.9871 6.90139 27.0487 6.86852 27.1227 6.86852H28.0598C28.142 6.86852 28.2118 6.89669 28.2694 6.95303C28.3351 7.00937 28.3762 7.0704 28.3927 7.13613L29.5887 11.7699L30.8587 7.17838C30.8834 7.09388 30.9245 7.02345 30.982 6.96712C31.0478 6.90139 31.13 6.86852 31.2286 6.86852H31.8574C31.9561 6.86852 32.0342 6.90139 32.0917 6.96712C32.1575 7.02345 32.1986 7.09388 32.215 7.17838L33.4973 11.7699L34.6933 7.13613C34.7098 7.0704 34.7468 7.00937 34.8043 6.95303C34.8619 6.89669 34.9358 6.86852 35.0263 6.86852H35.951C36.025 6.86852 36.0866 6.90139 36.136 6.96712C36.1935 7.02345 36.2223 7.09388 36.2223 7.17838L36.1976 7.30514L34.4344 13.8404C34.4015 13.953 34.3522 14.0422 34.2865 14.108C34.2289 14.1643 34.1467 14.1925 34.0399 14.1925H33.2261C33.0123 14.1925 32.8767 14.0751 32.8192 13.8404L31.5492 9.41782L30.2669 13.8404C30.2011 14.0751 30.0614 14.1925 29.8476 14.1925H29.0462Z" fill="white"/>
<defs>
<filter id="filter0_d" x="0" y="8" width="12" height="24" filterUnits="userSpaceOnUse" color-interpolation-filters="sRGB">
<feFlood flood-opacity="0" result="BackgroundImageFix"/>
<feColorMatrix in="SourceAlpha" type="matrix" values="0 0 0 0 0 0 0 0 0 0 0 0 0 0 0 0 0 0 127 0"/>
<feOffset dy="2"/>
<feGaussianBlur stdDeviation="1.5"/>
<feColorMatrix type="matrix" values="0 0 0 0 0 0 0 0 0 0 0 0 0 0 0 0 0 0 0.53 0"/>
<feBlend mode="normal" in2="BackgroundImageFix" result="effect1_dropShadow"/>
<feBlend mode="normal" in="SourceGraphic" in2="effect1_dropShadow" result="shape"/>
</filter>
<filter id="filter1_d" x="1" y="0" width="46" height="23.7778" filterUnits="userSpaceOnUse" color-interpolation-filters="sRGB">
<feFlood flood-opacity="0" result="BackgroundImageFix"/>
<feColorMatrix in="SourceAlpha" type="matrix" values="0 0 0 0 0 0 0 0 0 0 0 0 0 0 0 0 0 0 127 0"/>
<feOffset dy="2"/>
<feGaussianBlur stdDeviation="1.5"/>
<feColorMatrix type="matrix" values="0 0 0 0 0 0 0 0 0 0 0 0 0 0 0 0 0 0 0.53 0"/>
<feBlend mode="normal" in2="BackgroundImageFix" result="effect1_dropShadow"/>
<feBlend mode="normal" in="SourceGraphic" in2="effect1_dropShadow" result="shape"/>
</filter>
</defs>
</svg>
