<svg width="63" height="32" viewBox="0 0 63 32" fill="none" xmlns="http://www.w3.org/2000/svg">
<g filter="url(#filter0_d_6958_105654)">
<path d="M3 9H9V20L3 27V9Z" fill="#CE4700"/>
</g>
<g filter="url(#filter1_d_6958_105654)">
<path d="M4.26953 1H57.2695C58.3741 1 59.2695 1.89543 59.2695 3V17C59.2695 18.1046 58.3741 19 57.2695 19H4.26953V1Z" fill="#F65C10"/>
</g>
<path d="M11.5952 14C11.5085 14 11.4349 13.9697 11.3742 13.909C11.3135 13.8484 11.2832 13.7747 11.2832 13.688V5.22502C11.2832 5.12969 11.3092 5.05169 11.3612 4.99102C11.4219 4.93036 11.4999 4.90002 11.5952 4.90002H15.0792C16.1192 4.90002 16.9382 5.14702 17.5362 5.64102C18.1342 6.12636 18.4332 6.84136 18.4332 7.78602C18.4332 8.73069 18.1342 9.44569 17.5362 9.93102C16.9469 10.4077 16.1279 10.646 15.0792 10.646H13.1422V13.688C13.1422 13.7747 13.1119 13.8484 13.0512 13.909C12.9992 13.9697 12.9255 14 12.8302 14H11.5952ZM15.0142 9.20302C15.5169 9.20302 15.9025 9.08602 16.1712 8.85202C16.4399 8.60936 16.5742 8.25402 16.5742 7.78602C16.5742 7.33536 16.4442 6.98436 16.1842 6.73302C15.9242 6.47302 15.5342 6.34302 15.0142 6.34302H13.1162V9.20302H15.0142Z" fill="white"/>
<path d="M20.0085 14C19.9219 14 19.8482 13.9697 19.7875 13.909C19.7269 13.8484 19.6965 13.7747 19.6965 13.688V7.56502C19.6965 7.47836 19.7269 7.40469 19.7875 7.34402C19.8482 7.27469 19.9219 7.24002 20.0085 7.24002H21.0615C21.1569 7.24002 21.2349 7.27036 21.2955 7.33102C21.3562 7.39169 21.3865 7.46969 21.3865 7.56502V8.09802C21.5945 7.82069 21.8545 7.60836 22.1665 7.46102C22.4872 7.31369 22.8512 7.24002 23.2585 7.24002H23.7915C23.8869 7.24002 23.9605 7.27036 24.0125 7.33102C24.0732 7.38302 24.1035 7.45669 24.1035 7.55202V8.48802C24.1035 8.57469 24.0732 8.64836 24.0125 8.70902C23.9605 8.76969 23.8869 8.80002 23.7915 8.80002H22.7775C22.3702 8.80002 22.0495 8.91702 21.8155 9.15102C21.5815 9.38502 21.4645 9.70569 21.4645 10.113V13.688C21.4645 13.7747 21.4342 13.8484 21.3735 13.909C21.3129 13.9697 21.2349 14 21.1395 14H20.0085Z" fill="white"/>
<path d="M28.0186 14.13C27.0046 14.13 26.2202 13.87 25.6656 13.35C25.1109 12.8214 24.8119 12.102 24.7686 11.192L24.7556 10.62L24.7686 10.048C24.8119 9.14669 25.1152 8.43169 25.6786 7.90302C26.2419 7.37436 27.0219 7.11002 28.0186 7.11002C29.0152 7.11002 29.7952 7.37436 30.3586 7.90302C30.9219 8.43169 31.2252 9.14669 31.2686 10.048C31.2772 10.152 31.2816 10.3427 31.2816 10.62C31.2816 10.8974 31.2772 11.088 31.2686 11.192C31.2252 12.102 30.9262 12.8214 30.3716 13.35C29.8169 13.87 29.0326 14.13 28.0186 14.13ZM28.0186 12.843C28.4779 12.843 28.8332 12.7 29.0846 12.414C29.3359 12.1194 29.4746 11.6904 29.5006 11.127C29.5092 11.0404 29.5136 10.8714 29.5136 10.62C29.5136 10.3687 29.5092 10.1997 29.5006 10.113C29.4746 9.54969 29.3359 9.12502 29.0846 8.83902C28.8332 8.54436 28.4779 8.39702 28.0186 8.39702C27.5592 8.39702 27.2039 8.54436 26.9526 8.83902C26.7012 9.12502 26.5626 9.54969 26.5366 10.113L26.5236 10.62L26.5366 11.127C26.5626 11.6904 26.7012 12.1194 26.9526 12.414C27.2039 12.7 27.5592 12.843 28.0186 12.843Z" fill="white"/>
<path d="M33.0339 14C32.9473 14 32.8736 13.9697 32.8129 13.909C32.7523 13.8484 32.7219 13.7747 32.7219 13.688V7.55202C32.7219 7.46536 32.7523 7.39169 32.8129 7.33102C32.8736 7.27036 32.9473 7.24002 33.0339 7.24002H34.0479C34.1346 7.24002 34.2083 7.27036 34.2689 7.33102C34.3296 7.39169 34.3599 7.46536 34.3599 7.55202V7.99402C34.8106 7.40469 35.4389 7.11002 36.2449 7.11002C37.2069 7.11002 37.8786 7.49569 38.2599 8.26702C38.4679 7.92036 38.7626 7.64302 39.1439 7.43502C39.5253 7.21836 39.9369 7.11002 40.3789 7.11002C41.0896 7.11002 41.6703 7.35269 42.1209 7.83802C42.5716 8.32336 42.7969 9.02969 42.7969 9.95702V13.688C42.7969 13.7747 42.7666 13.8484 42.7059 13.909C42.6539 13.9697 42.5803 14 42.4849 14H41.4189C41.3323 14 41.2586 13.9697 41.1979 13.909C41.1373 13.8484 41.1069 13.7747 41.1069 13.688V10.061C41.1069 9.51502 40.9899 9.12069 40.7559 8.87802C40.5306 8.62669 40.2273 8.50102 39.8459 8.50102C39.5079 8.50102 39.2176 8.62669 38.9749 8.87802C38.7409 9.12936 38.6239 9.52369 38.6239 10.061V13.688C38.6239 13.7747 38.5936 13.8484 38.5329 13.909C38.4723 13.9697 38.3986 14 38.3119 14H37.2459C37.1593 14 37.0856 13.9697 37.0249 13.909C36.9643 13.8484 36.9339 13.7747 36.9339 13.688V10.061C36.9339 9.51502 36.8126 9.12069 36.5699 8.87802C36.3359 8.62669 36.0369 8.50102 35.6729 8.50102C35.3263 8.50102 35.0316 8.62669 34.7889 8.87802C34.5549 9.12936 34.4379 9.52369 34.4379 10.061V13.688C34.4379 13.7747 34.4076 13.8484 34.3469 13.909C34.2863 13.9697 34.2126 14 34.1259 14H33.0339Z" fill="white"/>
<path d="M47.4424 14.13C46.4284 14.13 45.6441 13.87 45.0894 13.35C44.5347 12.8214 44.2357 12.102 44.1924 11.192L44.1794 10.62L44.1924 10.048C44.2357 9.14669 44.5391 8.43169 45.1024 7.90302C45.6657 7.37436 46.4457 7.11002 47.4424 7.11002C48.4391 7.11002 49.2191 7.37436 49.7824 7.90302C50.3457 8.43169 50.6491 9.14669 50.6924 10.048C50.7011 10.152 50.7054 10.3427 50.7054 10.62C50.7054 10.8974 50.7011 11.088 50.6924 11.192C50.6491 12.102 50.3501 12.8214 49.7954 13.35C49.2407 13.87 48.4564 14.13 47.4424 14.13ZM47.4424 12.843C47.9017 12.843 48.2571 12.7 48.5084 12.414C48.7597 12.1194 48.8984 11.6904 48.9244 11.127C48.9331 11.0404 48.9374 10.8714 48.9374 10.62C48.9374 10.3687 48.9331 10.1997 48.9244 10.113C48.8984 9.54969 48.7597 9.12502 48.5084 8.83902C48.2571 8.54436 47.9017 8.39702 47.4424 8.39702C46.9831 8.39702 46.6277 8.54436 46.3764 8.83902C46.1251 9.12502 45.9864 9.54969 45.9604 10.113L45.9474 10.62L45.9604 11.127C45.9864 11.6904 46.1251 12.1194 46.3764 12.414C46.6277 12.7 46.9831 12.843 47.4424 12.843Z" fill="white"/>
<defs>
<filter id="filter0_d_6958_105654" x="0" y="8" width="12" height="24" filterUnits="userSpaceOnUse" color-interpolation-filters="sRGB">
<feFlood flood-opacity="0" result="BackgroundImageFix"/>
<feColorMatrix in="SourceAlpha" type="matrix" values="0 0 0 0 0 0 0 0 0 0 0 0 0 0 0 0 0 0 127 0" result="hardAlpha"/>
<feOffset dy="2"/>
<feGaussianBlur stdDeviation="1.5"/>
<feColorMatrix type="matrix" values="0 0 0 0 0 0 0 0 0 0 0 0 0 0 0 0 0 0 0.53 0"/>
<feBlend mode="normal" in2="BackgroundImageFix" result="effect1_dropShadow_6958_105654"/>
<feBlend mode="normal" in="SourceGraphic" in2="effect1_dropShadow_6958_105654" result="shape"/>
</filter>
<filter id="filter1_d_6958_105654" x="1.26953" y="0" width="61" height="24" filterUnits="userSpaceOnUse" color-interpolation-filters="sRGB">
<feFlood flood-opacity="0" result="BackgroundImageFix"/>
<feColorMatrix in="SourceAlpha" type="matrix" values="0 0 0 0 0 0 0 0 0 0 0 0 0 0 0 0 0 0 127 0" result="hardAlpha"/>
<feOffset dy="2"/>
<feGaussianBlur stdDeviation="1.5"/>
<feColorMatrix type="matrix" values="0 0 0 0 0 0 0 0 0 0 0 0 0 0 0 0 0 0 0.53 0"/>
<feBlend mode="normal" in2="BackgroundImageFix" result="effect1_dropShadow_6958_105654"/>
<feBlend mode="normal" in="SourceGraphic" in2="effect1_dropShadow_6958_105654" result="shape"/>
</filter>
</defs>
</svg>
